<?xml version="1.0" encoding="UTF-8" standalone="no" ?>
<!DOCTYPE svg PUBLIC "-//W3C//DTD SVG 1.1//EN" "http://www.w3.org/Graphics/SVG/1.1/DTD/svg11.dtd">
<svg xmlns="http://www.w3.org/2000/svg" xmlns:xlink="http://www.w3.org/1999/xlink" version="1.1" width="408" height="320" viewBox="0 0 408 320" xml:space="preserve">
<desc>Created with Fabric.js 3.6.6</desc>
<defs>
</defs>
<g transform="matrix(0 0.64 -0.64 0 203.81 1.89)"  >
<g style=""   >
		<g transform="matrix(1 0 0 1 -446.88 -266.73)"  >
<rect style="stroke: none; stroke-width: 1; stroke-dasharray: none; stroke-linecap: butt; stroke-dashoffset: 0; stroke-linejoin: miter; stroke-miterlimit: 4; fill: rgb(23,192,34); fill-rule: nonzero; opacity: 1;"  x="-50" y="-50" rx="0" ry="0" width="100" height="100" />
</g>
		<g transform="matrix(1 0 0 1 -0.01 -0.14)"  >
<rect style="stroke: rgb(255,255,255); stroke-width: 3.53; stroke-dasharray: none; stroke-linecap: butt; stroke-dashoffset: 0; stroke-linejoin: miter; stroke-miterlimit: 4; fill: none; fill-rule: nonzero; opacity: 1;"  x="-467.345" y="-313.2" rx="0" ry="0" width="934.69" height="626.4" />
</g>
		<g transform="matrix(1 0 0 1 -0.88 0.82)"  >
<path style="stroke: rgb(255,255,255); stroke-width: 3.51; stroke-dasharray: none; stroke-linecap: butt; stroke-dashoffset: 0; stroke-linejoin: miter; stroke-miterlimit: 4; fill: none; fill-rule: nonzero; opacity: 1;"  transform=" translate(-529.57, -380.77)" d="m 529.57 66.62 v 628.3" stroke-linecap="round" />
</g>
		<g transform="matrix(1 0 0 1 436.68 -0.17)"  >
<rect style="stroke: rgb(255,255,255); stroke-width: 3.54; stroke-dasharray: none; stroke-linecap: butt; stroke-dashoffset: 0; stroke-linejoin: miter; stroke-miterlimit: 4; fill: none; fill-rule: nonzero; opacity: 1;"  x="-30.645" y="-102.28" rx="0" ry="0" width="61.29" height="204.56" />
</g>
		<g transform="matrix(1 0 0 1 481.09 -0.17)"  >
<rect style="stroke: rgb(255,255,255); stroke-width: 3.54; stroke-dasharray: none; stroke-linecap: butt; stroke-dashoffset: 0; stroke-linejoin: miter; stroke-miterlimit: 4; fill: none; fill-rule: nonzero; opacity: 1;"  x="-14.015" y="-41.065" rx="0" ry="0" width="28.03" height="82.13" />
</g>
		<g transform="matrix(1 0 0 1 374.87 -0.27)"  >
<rect style="stroke: rgb(255,255,255); stroke-width: 3.54; stroke-dasharray: none; stroke-linecap: butt; stroke-dashoffset: 0; stroke-linejoin: miter; stroke-miterlimit: 4; fill: none; fill-rule: nonzero; opacity: 1;"  x="-92.45" y="-225.18" rx="0" ry="0" width="184.9" height="450.36" />
</g>
		<g transform="matrix(1 0 0 1 261.67 -0.12)"  >
<path style="stroke: rgb(255,255,255); stroke-width: 3.54; stroke-dasharray: none; stroke-linecap: butt; stroke-dashoffset: 0; stroke-linejoin: miter; stroke-miterlimit: 4; fill: none; fill-rule: nonzero; opacity: 1;"  transform=" translate(-836.16, -337.53)" d="m 856.48 418.8 c -44.807 -32.976 -54.398 -96.031 -21.422 -140.84 c 6.1142 -8.3078 13.468 -15.627 21.805 -21.702" stroke-linecap="round" />
</g>
		<g transform="matrix(1 0 0 1 344.68 -0.2)"  >
<path style="stroke: rgb(255,255,255); stroke-width: 3.54; stroke-dasharray: none; stroke-linecap: butt; stroke-dashoffset: 0; stroke-linejoin: miter; stroke-miterlimit: 4; fill: rgb(255,255,255); fill-rule: nonzero; opacity: 1;"  transform=" translate(-877.6, -406.35)" d="m 883.92 406.35 c 0 3.4922 -2.831 6.3231 -6.3231 6.3231 s -6.3231 -2.8309 -6.3231 -6.3231 c 0 -3.4921 2.8309 -6.3231 6.3231 -6.3231 c 3.4921 0 6.3231 2.8309 6.3231 6.3231 z" stroke-linecap="round" />
</g>
		<g transform="matrix(1 0 0 1 -0.42 -0.28)"  >
<path style="stroke: rgb(255,255,255); stroke-width: 3.54; stroke-dasharray: none; stroke-linecap: butt; stroke-dashoffset: 0; stroke-linejoin: miter; stroke-miterlimit: 4; fill: none; fill-rule: nonzero; opacity: 1;"  transform=" translate(-916.17, -337.67)" d="m 1016.9 337.67 c 0 55.633 -45.1 100.73 -100.73 100.73 c -55.633 0 -100.73 -45.1 -100.73 -100.73 c 0 -55.633 45.1 -100.73 100.73 -100.73 c 55.633 0 100.73 45.1 100.73 100.73 z" stroke-linecap="round" />
</g>
		<g transform="matrix(1 0 0 1 -1.25 -0.2)"  >
<path style="stroke: rgb(255,255,255); stroke-width: 3.54; stroke-dasharray: none; stroke-linecap: butt; stroke-dashoffset: 0; stroke-linejoin: miter; stroke-miterlimit: 4; fill: rgb(255,255,255); fill-rule: nonzero; opacity: 1;"  transform=" translate(-877.6, -406.35)" d="m 883.92 406.35 c 0 3.4922 -2.831 6.3231 -6.3231 6.3231 s -6.3231 -2.8309 -6.3231 -6.3231 c 0 -3.4921 2.8309 -6.3231 6.3231 -6.3231 c 3.4921 0 6.3231 2.8309 6.3231 6.3231 z" stroke-linecap="round" />
</g>
		<g transform="matrix(1 0 0 1 -374.98 -0.01)"  >
<rect style="stroke: rgb(255,255,255); stroke-width: 3.54; stroke-dasharray: none; stroke-linecap: butt; stroke-dashoffset: 0; stroke-linejoin: miter; stroke-miterlimit: 4; fill: none; fill-rule: nonzero; opacity: 1;"  x="-92.38" y="-225.47" rx="0" ry="0" width="184.76" height="450.94" />
</g>
		<g transform="matrix(1 0 0 1 -436.51 0.35)"  >
<rect style="stroke: rgb(255,255,255); stroke-width: 3.54; stroke-dasharray: none; stroke-linecap: butt; stroke-dashoffset: 0; stroke-linejoin: miter; stroke-miterlimit: 4; fill: none; fill-rule: nonzero; opacity: 1;"  x="-30.79" y="-102.425" rx="0" ry="0" width="61.58" height="204.85" />
</g>
		<g transform="matrix(1 0 0 1 -481.53 -0.05)"  >
<rect style="stroke: rgb(255,255,255); stroke-width: 3.54; stroke-dasharray: none; stroke-linecap: butt; stroke-dashoffset: 0; stroke-linejoin: miter; stroke-miterlimit: 4; fill: none; fill-rule: nonzero; opacity: 1;"  x="-13.58" y="-41.065" rx="0" ry="0" width="27.16" height="82.13" />
</g>
		<g transform="matrix(-1 0 0 1 -262.4 -0.15)"  >
<path style="stroke: rgb(255,255,255); stroke-width: 3.54; stroke-dasharray: none; stroke-linecap: butt; stroke-dashoffset: 0; stroke-linejoin: miter; stroke-miterlimit: 4; fill: none; fill-rule: nonzero; opacity: 1;"  transform=" translate(-836.16, -337.53)" d="m 856.48 418.8 c -44.807 -32.976 -54.398 -96.031 -21.422 -140.84 c 6.1142 -8.3078 13.468 -15.627 21.805 -21.702" stroke-linecap="round" />
</g>
		<g transform="matrix(1 0 0 1 -345.01 -0.08)"  >
<path style="stroke: rgb(255,255,255); stroke-width: 3.54; stroke-dasharray: none; stroke-linecap: butt; stroke-dashoffset: 0; stroke-linejoin: miter; stroke-miterlimit: 4; fill: rgb(255,255,255); fill-rule: nonzero; opacity: 1;"  transform=" translate(-877.6, -406.35)" d="m 883.92 406.35 c 0 3.4922 -2.831 6.3231 -6.3231 6.3231 s -6.3231 -2.8309 -6.3231 -6.3231 c 0 -3.4921 2.8309 -6.3231 6.3231 -6.3231 c 3.4921 0 6.3231 2.8309 6.3231 6.3231 z" stroke-linecap="round" />
</g>
		<g transform="matrix(1 0 0 1 458.74 304.48)"  >
<path style="stroke: rgb(255,255,255); stroke-width: 3.54; stroke-dasharray: none; stroke-linecap: butt; stroke-dashoffset: 0; stroke-linejoin: miter; stroke-miterlimit: 4; fill: none; fill-rule: nonzero; opacity: 1;"  transform=" translate(-975.97, -671.81)" d="m 966.57 681.74 c -2.2563 -8.4207 2.7409 -17.076 11.162 -19.332 c 2.6764 -0.71714 5.4944 -0.71714 8.1709 0" stroke-linecap="round" />
</g>
		<g transform="matrix(-1 0 0 -1 -458.71 -304.7)"  >
<path style="stroke: rgb(255,255,255); stroke-width: 3.54; stroke-dasharray: none; stroke-linecap: butt; stroke-dashoffset: 0; stroke-linejoin: miter; stroke-miterlimit: 4; fill: none; fill-rule: nonzero; opacity: 1;"  transform=" translate(-975.97, -671.81)" d="m 966.57 681.74 c -2.2563 -8.4207 2.7409 -17.076 11.162 -19.332 c 2.6764 -0.71714 5.4944 -0.71714 8.1709 0" stroke-linecap="round" />
</g>
		<g transform="matrix(0 -1 1 0 458.81 -305.01)"  >
<path style="stroke: rgb(255,255,255); stroke-width: 3.54; stroke-dasharray: none; stroke-linecap: butt; stroke-dashoffset: 0; stroke-linejoin: miter; stroke-miterlimit: 4; fill: none; fill-rule: nonzero; opacity: 1;"  transform=" translate(-975.97, -671.81)" d="m 966.57 681.74 c -2.2563 -8.4207 2.7409 -17.076 11.162 -19.332 c 2.6764 -0.71714 5.4944 -0.71714 8.1709 0" stroke-linecap="round" />
</g>
		<g transform="matrix(0 1 -1 0 -458.23 304.56)"  >
<path style="stroke: rgb(255,255,255); stroke-width: 3.54; stroke-dasharray: none; stroke-linecap: butt; stroke-dashoffset: 0; stroke-linejoin: miter; stroke-miterlimit: 4; fill: none; fill-rule: nonzero; opacity: 1;"  transform=" translate(-975.97, -671.81)" d="m 966.57 681.74 c -2.2563 -8.4207 2.7409 -17.076 11.162 -19.332 c 2.6764 -0.71714 5.4944 -0.71714 8.1709 0" stroke-linecap="round" />
</g>
</g>
</g>
</svg>