<svg xmlns="http://www.w3.org/2000/svg" xmlns:xlink="http://www.w3.org/1999/xlink" version="1.1" width="256" height="256" viewBox="0 0 256 256" xml:space="preserve">

<defs>
</defs>
<g style="stroke: none; stroke-width: 0; stroke-dasharray: none; stroke-linecap: butt; stroke-linejoin: miter; stroke-miterlimit: 10; fill: none; fill-rule: nonzero; opacity: 1;" transform="translate(1.4065934065934016 1.4065934065934016) scale(2.81 2.81)" >
	<path d="M 80.709 72.34 c 0.164 -0.15 0.301 -0.329 0.408 -0.527 c 4.483 -6.022 7.485 -13.202 8.496 -20.999 c 0.038 -0.152 0.057 -0.307 0.059 -0.463 C 89.88 48.595 90 46.812 90 45 c 0 -8.925 -2.622 -17.243 -7.121 -24.247 c -0.091 -0.226 -0.226 -0.433 -0.394 -0.614 C 77.247 12.267 69.6 6.129 60.602 2.792 c -0.077 -0.034 -0.155 -0.064 -0.235 -0.088 C 55.57 0.956 50.395 0 45 0 c -5.406 0 -10.592 0.96 -15.398 2.715 c -0.058 0.019 -0.115 0.041 -0.172 0.065 c -9.015 3.335 -16.674 9.48 -21.919 17.365 c -0.165 0.178 -0.298 0.382 -0.388 0.604 C 2.623 27.754 0 36.074 0 45 c 0 1.818 0.121 3.607 0.331 5.369 c 0.003 0.143 0.021 0.285 0.054 0.425 c 1.007 7.794 4.005 14.972 8.482 20.995 c 0.114 0.22 0.264 0.417 0.447 0.579 c 6.252 8.133 15.213 14.07 25.524 16.46 c 0.075 0.026 0.153 0.037 0.231 0.053 C 38.266 89.605 41.587 90 45 90 c 3.414 0 6.735 -0.395 9.933 -1.118 c 0.077 -0.017 0.154 -0.027 0.228 -0.053 C 65.485 86.436 74.456 80.487 80.709 72.34 z M 27.77 67.943 l -16.112 0.872 C 7.973 63.671 5.44 57.649 4.459 51.122 l 12.198 -10.604 l 10.132 2.427 l 5.722 17.613 L 27.77 67.943 z M 63.211 42.944 l 10.133 -2.427 l 12.197 10.603 c -0.981 6.527 -3.514 12.55 -7.199 17.694 l -16.113 -0.872 l -4.741 -7.385 L 63.211 42.944 z M 78.746 21.752 l -6.312 14.872 l -10.347 2.478 L 47 28.141 v -11.76 l 13.073 -9.498 C 67.671 9.898 74.16 15.116 78.746 21.752 z M 29.927 6.883 L 43 16.381 v 11.76 l -15.085 10.96 l -10.346 -2.478 l -6.313 -14.872 C 15.841 15.115 22.33 9.898 29.927 6.883 z M 36.953 85.202 l -5.822 -15.091 l 4.668 -7.272 h 18.402 l 4.668 7.271 l -5.823 15.092 C 50.443 85.723 47.753 86 45 86 C 42.246 86 39.556 85.723 36.953 85.202 z" style="stroke: none; stroke-width: 1; stroke-dasharray: none; stroke-linecap: butt; stroke-linejoin: miter; stroke-miterlimit: 10; fill: rgb(0,0,0); fill-rule: nonzero; opacity: 1;" transform=" matrix(1 0 0 1 0 0) " stroke-linecap="round" />
</g>
</svg>